# xmcd CD database file
#
# Track frame offsets:
#	182
#	29520
#	46742
#	68902
#	93520
#	104557
#	133110
#	158825
#	173485
#
# Disc length: 2656 seconds
#
# Revision: 0
# Processed by: cddbd v1.5.2PL0 Copyright (c) Steve Scherf et al.
# Submitted via: CDex 1.51
#
DISCID=730a5e09
DTITLE=Various Artist - Jazz in the Night
DYEAR=1997
DGENRE=Jazz
TTITLE0=Night and Day
TTITLE1=Dedicated To You
TTITLE2=I Only Have Eyes For You
TTITLE3=Confessin'
TTITLE4=Some Of These Days
TTITLE5=Moonlight Serenade
TTITLE6=Moonlight in Vermont
TTITLE7=Satin Doll
TTITLE8=Sweet Lorraine
EXTD=YEAR: 1997
EXTT0=
EXTT1=
EXTT2=
EXTT3=
EXTT4=
EXTT5=
EXTT6=
EXTT7=
EXTT8=
PLAYORDER=
